<svg id="Layer_1" data-name="Layer 1" xmlns="http://www.w3.org/2000/svg" viewBox="0 0 300 82"><defs><style>.cls-1{fill:#25214f;}.cls-2{fill:#d9ac0a;}.cls-3{fill:#d9ac0b;}</style></defs><title>Royal Exchange Logo</title><path class="cls-1" d="M28.44625,65.67957H21.1084l-5.4689-11.166H9.66889v11.166H3.06039V33.77638H16.91556a11.12361,11.12361,0,0,1,7.634,2.803,9.621,9.621,0,0,1,3.16735,7.5884,9.98957,9.98957,0,0,1-1.59514,5.67418,10.135,10.135,0,0,1-4.23843,3.62319ZM9.66889,39.65583v9.115H16.2318a4.82707,4.82707,0,0,0,3.4638-1.25312,4.28685,4.28685,0,0,0,1.32164-3.25881,4.41745,4.41745,0,0,0-1.32164-3.327,4.78047,4.78047,0,0,0-3.4638-1.27606Z"/><path class="cls-1" d="M46.53955,66.13541A15.5978,15.5978,0,0,1,34.98622,61.35,15.93979,15.93979,0,0,1,30.269,49.72812a15.93931,15.93931,0,0,1,4.7172-11.62185,15.5978,15.5978,0,0,1,11.55333-4.78543,15.54568,15.54568,0,0,1,11.508,4.78543A15.93905,15.93905,0,0,1,62.7645,49.72812,15.93953,15.93953,0,0,1,58.04759,61.35,15.54568,15.54568,0,0,1,46.53955,66.13541ZM46.494,59.5725a9.10681,9.10681,0,0,0,6.81377-2.84856,10.25447,10.25447,0,0,0,0-13.99192,9.51941,9.51941,0,0,0-13.58167,0,10.25366,10.25366,0,0,0,0,13.99192A9.05168,9.05168,0,0,0,46.494,59.5725Z"/><path class="cls-1" d="M73.33851,65.67957v-12.67L61.94458,33.77638H69.738L76.71113,46.629l6.92759-12.85262h7.79339L80.03817,53.00958v12.67Z"/><path class="cls-1" d="M88.33269,65.67957,101.185,33.77638h7.06433l12.98908,31.90319H113.855l-2.05069-5.24127H97.72122l-2.0054,5.24127ZM99.86338,54.33122h9.79878l-4.8766-12.85232h-.09117Z"/><path class="cls-1" d="M124.38255,65.67957V33.77638h6.69966V59.48133h15.67824v6.19824Z"/><path class="cls-1" d="M193.48284,49.27228a7.73956,7.73956,0,0,1,4.14725,7.24668,8.19589,8.19589,0,0,1-3.00795,6.69937,11.83953,11.83953,0,0,1-7.7481,2.46124H173.29238V33.77638h12.807a11.71087,11.71087,0,0,1,7.72516,2.4383,8.21142,8.21142,0,0,1,2.93972,6.677A7.3293,7.3293,0,0,1,193.48284,49.27228Zm-13.58167-9.7532v7.56547h6.19824a4.79935,4.79935,0,0,0,2.96266-.88874,3.38314,3.38314,0,0,0,1.1846-2.89385,3.38446,3.38446,0,0,0-1.1846-2.89414,4.79935,4.79935,0,0,0-2.96266-.88874Zm6.79054,20.41779a5.028,5.028,0,0,0,3.05383-.934,3.39949,3.39949,0,0,0,1.27635-2.93972,3.35007,3.35007,0,0,0-1.27635-2.89414,5.032,5.032,0,0,0-3.05383-.93433h-6.79054v7.70222Z"/><path class="cls-1" d="M198.13181,65.67957l12.85233-31.90319h7.06463l12.98878,31.90319h-7.38342l-2.0504-5.24127H207.52034l-2.0051,5.24127ZM209.6625,54.33122h9.79908L214.585,41.4789h-.09117Z"/><path class="cls-1" d="M234.182,65.67957V33.77638h7.51989l13.90046,21.14743V33.77638h6.7V65.67957h-7.56576L240.88134,44.578V65.67957Z"/><path class="cls-1" d="M267.81646,65.67957V33.77638h6.69937V46.53784h4.6031l9.06974-12.76146h8.20393L285.04425,49.637l11.89536,16.04261h-8.38627L279.2101,52.91841h-4.69427V65.67957Z"/><path class="cls-2" d="M153.96908,1.7638a51.89606,51.89606,0,0,0-11.21274,9.28663,118.26758,118.26758,0,0,0-9.01147,12.451s6.822,3.083,10.75414,7.2688c4.54013,4.67771,9.46937,11.23567,9.47007,16.53249S153.96908,1.7638,153.96908,1.7638Z"/><path class="cls-2" d="M155.21526,1.7638A51.89606,51.89606,0,0,1,166.428,11.05043a118.26758,118.26758,0,0,1,9.01147,12.451s-6.822,3.083-10.75415,7.2688c-4.54013,4.67771-9.46936,11.23567-9.47006,16.53249S155.21526,1.7638,155.21526,1.7638Z"/><polygon class="cls-3" points="175.225 69.23 175.225 74.527 136.565 74.527 136.565 69.23 135.121 69.23 135.121 74.527 135.121 75.008 135.121 80.236 176.67 80.236 176.67 75.008 176.67 74.527 176.67 69.23 175.225 69.23"/></svg>