<svg id="Layer_1" data-name="Layer 1" xmlns="http://www.w3.org/2000/svg" viewBox="0 0 540 160"><defs><style>.cls-1{fill:#25214f;}.cls-2{fill:#fff;}</style></defs><title>Royal Bank Internet Banking</title><rect class="cls-1" width="540" height="160" rx="21.95745"/><path class="cls-2" d="M70.76777,28.72341A51.27659,51.27659,0,1,0,122.04436,80,51.27659,51.27659,0,0,0,70.76777,28.72341Zm36.94905,29.91134H93.95334a84.07644,84.07644,0,0,0-12.05427-19.844A42.86294,42.86294,0,0,1,107.71682,58.63475ZM89.99649,80a43.63211,43.63211,0,0,1-2.034,12.81915H53.573a41.4135,41.4135,0,0,1,0-25.6383h34.3895A43.63211,43.63211,0,0,1,89.99649,80ZM57,101.36525H84.53554A83.81191,83.81191,0,0,1,70.76777,120.97,83.62341,83.62341,0,0,1,57,101.36525Zm0-42.7305A83.81166,83.81166,0,0,1,70.76777,39.03,83.62345,83.62345,0,0,1,84.53554,58.63475Zm2.65783-19.844a84.07639,84.07639,0,0,0-12.07563,19.844H33.81872A42.86292,42.86292,0,0,1,59.65784,38.79072ZM30.00716,67.18085h14.695a48.92642,48.92642,0,0,0,0,25.6383h-14.695A42.69633,42.69633,0,0,1,30.00716,67.18085Zm3.81156,34.1844H47.58221a84.07692,84.07692,0,0,0,12.07563,19.844A42.863,42.863,0,0,1,33.81872,101.36525Zm48.08034,19.844a84.07661,84.07661,0,0,0,12.05428-19.844h13.76349a42.863,42.863,0,0,1-25.81777,19.844Zm29.62932-28.39014h-14.695a48.92642,48.92642,0,0,0,0-25.6383h14.68647a42.69617,42.69617,0,0,1,0,25.6383Z"/><path class="cls-2" d="M180.41372,76.02426h-6.69928L168.72147,65.83h-5.451V76.02426H157.237V46.89741h12.64945a10.15562,10.15562,0,0,1,6.96965,2.559,8.78374,8.78374,0,0,1,2.89171,6.928,9.12016,9.12016,0,0,1-1.45633,5.18038,9.25289,9.25289,0,0,1-3.86958,3.30789ZM163.27044,52.2652V60.587h5.99178a4.407,4.407,0,0,0,3.16236-1.14407,3.91378,3.91378,0,0,0,1.20663-2.97522,4.033,4.033,0,0,0-1.20663-3.03751,4.36443,4.36443,0,0,0-3.16236-1.165Z"/><path class="cls-2" d="M196.93247,76.44043a14.2404,14.2404,0,0,1-10.54791-4.369,15.22394,15.22394,0,0,1,0-21.22095,14.86734,14.86734,0,0,1,21.05448,0,15.22462,15.22462,0,0,1,0,21.22095A14.19283,14.19283,0,0,1,196.93247,76.44043Zm-.04161-5.99179a8.31429,8.31429,0,0,0,6.22081-2.60066,9.36209,9.36209,0,0,0,0-12.7743,8.691,8.691,0,0,0-12.39974,0,9.36136,9.36136,0,0,0,0,12.7743A8.264,8.264,0,0,0,196.89086,70.44864Z"/><path class="cls-2" d="M221.39929,76.02426V64.45686L210.9969,46.89741h7.11518l6.36633,11.73413,6.32473-11.73413h7.11517L227.51592,64.45686v11.5674Z"/><path class="cls-2" d="M235.08862,76.02426l11.73387-29.12685h6.44957l11.85872,29.12685h-6.74089l-1.87223-4.78516H243.66013l-1.83089,4.78516Zm10.52724-10.36077h8.94606L250.1097,53.92962h-.08323Z"/><path class="cls-2" d="M268.00128,76.02426V46.89741h6.11664v23.468h14.31386v5.65885Z"/><path class="cls-2" d="M331.08821,61.0448a7.066,7.066,0,0,1,3.78635,6.616,7.48266,7.48266,0,0,1-2.74619,6.11636,10.80924,10.80924,0,0,1-7.07383,2.24706H312.6548V46.89741h11.69251a10.6917,10.6917,0,0,1,7.05289,2.22611,7.49681,7.49681,0,0,1,2.6839,6.096A6.69151,6.69151,0,0,1,331.08821,61.0448Zm-12.39974-8.90445v6.90709h5.65884a4.38171,4.38171,0,0,0,2.70485-.81139,3.08875,3.08875,0,0,0,1.0815-2.642,3.08994,3.08994,0,0,0-1.0815-2.64228,4.38172,4.38172,0,0,0-2.70485-.8114Zm6.1996,18.641a4.59043,4.59043,0,0,0,2.78807-.85275,3.10363,3.10363,0,0,0,1.16528-2.68389,3.05854,3.05854,0,0,0-1.16528-2.64229,4.59414,4.59414,0,0,0-2.78807-.853h-6.1996v7.03194Z"/><path class="cls-2" d="M335.33261,76.02426l11.73387-29.12685h6.44984l11.85845,29.12685h-6.74089l-1.872-4.78516h-12.8578l-1.83062,4.78516Zm10.52724-10.36077h8.94633L350.354,53.92962h-.08323Z"/><path class="cls-2" d="M368.24554,76.02426V46.89741H375.111l12.69079,19.3071V46.89741h6.1169V76.02426h-6.90736L374.36191,56.759V76.02426Z"/><path class="cls-2" d="M398.953,76.02426V46.89741h6.11637v11.6509h4.20252l8.28045-11.6509h7.49L414.68161,61.37773l10.86018,14.64653h-7.65647l-8.53016-11.65064h-4.28575V76.02426Z"/><path class="cls-2" d="M295.01309,17.67068a47.37982,47.37982,0,0,0-10.237,8.47847,107.97427,107.97427,0,0,0-8.22726,11.36743s6.22836,2.81471,9.81828,6.63624c4.145,4.27064,8.64531,10.2579,8.64595,15.09377S295.01309,17.67068,295.01309,17.67068Z"/><path class="cls-2" d="M296.15081,17.67068a47.37982,47.37982,0,0,1,10.237,8.47847A107.97427,107.97427,0,0,1,314.615,37.51658s-6.22836,2.81471-9.81828,6.63624c-4.145,4.27064-8.64531,10.2579-8.646,15.09377S296.15081,17.67068,296.15081,17.67068Z"/><polygon class="cls-2" points="314.419 79.266 314.419 84.101 279.124 84.101 279.124 79.266 277.805 79.266 277.805 84.101 277.805 84.541 277.805 89.314 315.738 89.314 315.738 84.541 315.738 84.101 315.738 79.266 314.419 79.266"/><path class="cls-2" d="M155.80713,131.94748V99.27366h5.97851v32.67382Z"/><path class="cls-2" d="M168.50537,131.94748V114.38206q0-1.43556-.09228-2.91993-.09375-1.48242-.27832-2.91992h5.60791l.46337,4.63477h-.55615a8.29338,8.29338,0,0,1,3.29053-3.77735,9.55469,9.55469,0,0,1,5.05176-1.32031q4.125,0,6.21045,2.31738,2.08593,2.3174,2.08593,7.2295v14.32128h-5.79345v-14.043a6.0735,6.0735,0,0,0-1.08936-4.05567,4.14162,4.14162,0,0,0-3.26709-1.22754,5.58422,5.58422,0,0,0-4.26416,1.668,6.21392,6.21392,0,0,0-1.57568,4.44922v13.209Z"/><path class="cls-2" d="M206.46338,132.41135q-4.17187,0-6.30322-2.17871-2.13282-2.17823-2.13184-6.53516V112.89866h-4.49561v-4.35645h4.49561V102.5637l5.793-1.48243v7.46094h6.25684v4.35645h-6.25684v10.42871a4.8655,4.8655,0,0,0,.92725,3.38281,3.34862,3.34862,0,0,0,2.54882.97363,7.03791,7.03791,0,0,0,1.50635-.13965,8.55226,8.55226,0,0,0,1.228-.37011v4.58789a8.224,8.224,0,0,1-1.73779.48633A10.86437,10.86437,0,0,1,206.46338,132.41135Z"/><path class="cls-2" d="M225.09473,132.41135q-5.88648,0-9.22266-3.24512-3.33692-3.24315-3.33691-8.89843a13.55979,13.55979,0,0,1,1.43652-6.39551,10.56918,10.56918,0,0,1,4.00879-4.26367,11.522,11.522,0,0,1,6.00195-1.5293,10.39029,10.39029,0,0,1,5.6543,1.43652,9.108,9.108,0,0,1,3.45264,4.03223,14.52666,14.52666,0,0,1,1.18212,6.07129v1.5293H217.21582v-3.0586h12.93066l-.78759.64844a7.81,7.81,0,0,0-1.36719-4.959,4.772,4.772,0,0,0-3.96289-1.71485,5.23552,5.23552,0,0,0-4.42627,2.03906,9.23217,9.23217,0,0,0-1.55225,5.70118v.60254q0,3.7998,1.877,5.67675a7.17356,7.17356,0,0,0,5.30664,1.87793,12.66066,12.66066,0,0,0,3.731-.5332,10.51749,10.51749,0,0,0,3.31348-1.73828l1.71484,3.89355a12.18091,12.18091,0,0,1-3.98584,2.085A16.03078,16.03078,0,0,1,225.09473,132.41135Z"/><path class="cls-2" d="M239.13672,131.94748V114.5217q0-1.48387-.06934-3.01269-.06957-1.5293-.25488-2.9668h5.60791l.64893,6.39649h-.92676a9.89264,9.89264,0,0,1,1.55224-3.84668,6.81177,6.81177,0,0,1,2.665-2.27149,7.95213,7.95213,0,0,1,3.42969-.74121,10.45623,10.45623,0,0,1,1.34375.06934,4.94376,4.94376,0,0,1,1.02.25488l-.04639,5.09766a6.55249,6.55249,0,0,0-1.50634-.46289,10.90491,10.90491,0,0,0-1.55274-.09278,6.341,6.341,0,0,0-3.35986.834,5.1312,5.1312,0,0,0-2.03955,2.31738,8.11593,8.11593,0,0,0-.67188,3.38379v12.46679Z"/><path class="cls-2" d="M257.397,131.94748V114.38206q0-1.43556-.09228-2.91993-.09375-1.48242-.27832-2.91992h5.60791l.46338,4.63477h-.55616a8.29338,8.29338,0,0,1,3.29053-3.77735,9.55469,9.55469,0,0,1,5.05176-1.32031q4.12353,0,6.21,2.31738,2.08594,2.3174,2.08594,7.2295v14.32128h-5.793v-14.043a6.068,6.068,0,0,0-1.08984-4.05567,4.14124,4.14124,0,0,0-3.26661-1.22754,5.58424,5.58424,0,0,0-4.26416,1.668,6.21392,6.21392,0,0,0-1.57568,4.44922v13.209Z"/><path class="cls-2" d="M296.65234,132.41135q-5.88573,0-9.22265-3.24512-3.33691-3.24315-3.33692-8.89843a13.55979,13.55979,0,0,1,1.43653-6.39551,10.56583,10.56583,0,0,1,4.00879-4.26367,11.52073,11.52073,0,0,1,6.00195-1.5293,10.39261,10.39261,0,0,1,5.6543,1.43652,9.112,9.112,0,0,1,3.45312,4.03223,14.52658,14.52658,0,0,1,1.18164,6.07129v1.5293H288.77344v-3.0586H301.7041l-.78808.64844a7.807,7.807,0,0,0-1.36719-4.959,4.76945,4.76945,0,0,0-3.96192-1.71485,5.2352,5.2352,0,0,0-4.42675,2.03906,9.23217,9.23217,0,0,0-1.55274,5.70118v.60254q0,3.7998,1.877,5.67675a7.17584,7.17584,0,0,0,5.30664,1.87793,12.66634,12.66634,0,0,0,3.73144-.5332,10.52283,10.52283,0,0,0,3.31348-1.73828l1.71484,3.89355a12.18823,12.18823,0,0,1-3.98535,2.085A16.03628,16.03628,0,0,1,296.65234,132.41135Z"/><path class="cls-2" d="M320.65918,132.41135q-4.1704,0-6.30273-2.17871-2.13282-2.17823-2.13184-6.53516V112.89866h-4.49609v-4.35645h4.49609V102.5637l5.793-1.48243v7.46094h6.25683v4.35645h-6.25683v10.42871a4.86813,4.86813,0,0,0,.92676,3.38281,3.3516,3.3516,0,0,0,2.5498.97363A7.03624,7.03624,0,0,0,323,127.54416a8.57727,8.57727,0,0,0,1.22852-.37011v4.58789a8.23685,8.23685,0,0,1-1.73829.48633A10.86535,10.86535,0,0,1,320.65918,132.41135Z"/><path class="cls-2" d="M341.376,131.94748V99.27366h14.32031q5.32909,0,8.2041,2.24707a7.475,7.475,0,0,1,2.873,6.23437A7.39034,7.39034,0,0,1,365.0127,112.76a8.72056,8.72056,0,0,1-4.86622,2.73438v-.69531a9.195,9.195,0,0,1,5.53809,2.57226,7.56041,7.56041,0,0,1,1.96973,5.44629,8.10919,8.10919,0,0,1-3.0127,6.74317q-3.01318,2.38769-8.38867,2.38671Zm5.74707-18.8164h7.55371a7.82605,7.82605,0,0,0,4.751-1.18164,4.71992,4.71992,0,0,0,0-6.999,7.82612,7.82612,0,0,0-4.751-1.18164h-7.55371Zm0,14.27441h8.43457a8.24752,8.24752,0,0,0,4.68066-1.13574,4.18325,4.18325,0,0,0,1.669-3.73047,4.2359,4.2359,0,0,0-1.669-3.77734,8.25531,8.25531,0,0,0-4.68066-1.13574h-8.43457Z"/><path class="cls-2" d="M381.92773,132.41135a9.87709,9.87709,0,0,1-5.377-1.46,9.74178,9.74178,0,0,1-3.61426-4.19433,15.12365,15.12365,0,0,1-1.29785-6.53516,14.97,14.97,0,0,1,1.29785-6.51172,9.76076,9.76076,0,0,1,3.61426-4.1709,9.86882,9.86882,0,0,1,5.377-1.46,9.35746,9.35746,0,0,1,5.21387,1.46,6.962,6.962,0,0,1,2.98926,3.916h-.50977l.50977-4.91309h5.56152q-.13916,1.437-.25488,2.91992-.11718,1.48389-.11621,2.91993v17.56542h-5.74707l-.0459-4.82031h.55566a6.83726,6.83726,0,0,1-3.01171,3.84668A9.42049,9.42049,0,0,1,381.92773,132.41135Zm1.62207-4.44922a5.544,5.544,0,0,0,4.40235-1.92382q1.66845-1.92334,1.66894-5.81641,0-3.89355-1.66894-5.793a6.05045,6.05045,0,0,0-8.80567,0q-1.66845,1.8999-1.668,5.793,0,3.89355,1.64453,5.81641A5.52743,5.52743,0,0,0,383.5498,127.96213Z"/><path class="cls-2" d="M401.625,131.94748V114.38206q0-1.43556-.09277-2.91993-.09375-1.48242-.27735-2.91992h5.60742l.46387,4.63477h-.55664a8.28873,8.28873,0,0,1,3.291-3.77735,9.55225,9.55225,0,0,1,5.05175-1.32031q4.12355,0,6.21,2.31738,2.08593,2.3174,2.08593,7.2295v14.32128h-5.79394v-14.043a6.07365,6.07365,0,0,0-1.08887-4.05567,4.14273,4.14273,0,0,0-3.26758-1.22754,5.58313,5.58313,0,0,0-4.26367,1.668,6.21365,6.21365,0,0,0-1.57519,4.44922v13.209Z"/><path class="cls-2" d="M429.57129,131.94748V97.83616h5.79394v20.6709h.0918l9.501-9.96485h6.999l-11.81836,12.375.0459-2.31738L452.791,131.94748h-7.1836L435.457,121.47288h-.0918v10.4746Z"/><path class="cls-2" d="M454.83008,104.13987v-5.6543h6.44238v5.6543Zm.32422,27.80761V108.54221h5.79394v23.40527Z"/><path class="cls-2" d="M467.25,131.94748V114.38206q0-1.43556-.09277-2.91993-.09375-1.48242-.27735-2.91992h5.60742l.46387,4.63477h-.55664a8.28873,8.28873,0,0,1,3.291-3.77735,9.55225,9.55225,0,0,1,5.05175-1.32031q4.12355,0,6.21,2.31738,2.08593,2.3174,2.08593,7.2295v14.32128h-5.79394v-14.043a6.07365,6.07365,0,0,0-1.08887-4.05567,4.14273,4.14273,0,0,0-3.26758-1.22754,5.58313,5.58313,0,0,0-4.26367,1.668,6.21365,6.21365,0,0,0-1.57519,4.44922v13.209Z"/><path class="cls-2" d="M506.042,142.32932a22.883,22.883,0,0,1-5.86328-.69531,14.46355,14.46355,0,0,1-4.6582-2.13184l1.252-4.17187a14.85549,14.85549,0,0,0,2.78027,1.4375,16.32792,16.32792,0,0,0,2.9668.834,17.29751,17.29751,0,0,0,3.10449.27832,6.58455,6.58455,0,0,0,4.84375-1.59961,6.17753,6.17753,0,0,0,1.59864-4.56445v-5.6084h.46386a6.86393,6.86393,0,0,1-2.98925,3.84668,9.38719,9.38719,0,0,1-5.168,1.43652,10.41411,10.41411,0,0,1-5.49219-1.41308,9.48254,9.48254,0,0,1-3.6377-4.05567,13.92791,13.92791,0,0,1-1.29785-6.21,13.7876,13.7876,0,0,1,1.29785-6.1875,9.5213,9.5213,0,0,1,3.6377-4.03222,10.42308,10.42308,0,0,1,5.49219-1.41309,9.36552,9.36552,0,0,1,5.168,1.41309,6.82327,6.82327,0,0,1,2.94238,3.82422l-.417-.27832.46386-4.4961h5.60743q-.186,1.437-.27832,2.91992-.09229,1.48389-.0918,2.91993v16.63867q0,5.51513-2.99024,8.41211Q511.78907,142.32883,506.042,142.32932Zm-.09277-15.38769a5.58762,5.58762,0,0,0,4.42578-1.877,7.86915,7.86915,0,0,0,1.64551-5.35254,7.78076,7.78076,0,0,0-1.64551-5.33007,5.62392,5.62392,0,0,0-4.42578-1.85352,5.7488,5.7488,0,0,0-4.49609,1.85352,7.708,7.708,0,0,0-1.668,5.33007,7.79521,7.79521,0,0,0,1.668,5.35254A5.71085,5.71085,0,0,0,505.94922,126.94163Z"/></svg>